<?xml version="1.0" standalone="no"?>
<svg version="1.0" xmlns="http://www.w3.org/2000/svg"
 width="300.000000pt" height="300.000000pt" viewBox="0 0 300.000000 300.000000"
 preserveAspectRatio="xMidYMid meet">

<g transform="translate(0.000000,300.000000) scale(0.100000,-0.100000)"
fill="#89E1F0" stroke="none">
<path d="M1488 2679 c-30 -17 -39 -45 -26 -73 6 -14 15 -26 20 -26 4 0 8 -67
8 -150 l0 -150 -60 0 -60 0 0 35 c0 22 8 43 20 55 27 27 26 65 -2 84 -29 21
-51 20 -71 -2 -21 -23 -22 -60 -3 -81 11 -12 15 -49 17 -150 l1 -133 -73 -44
-74 -43 -3 236 c-2 226 -1 237 18 255 26 24 27 74 1 88 -65 34 -124 -37 -71
-85 18 -17 20 -31 20 -187 l0 -168 -60 0 -60 0 0 89 c0 70 3 90 15 95 18 7 20
67 3 84 -18 18 -63 14 -81 -6 -22 -24 -21 -44 3 -75 17 -21 20 -40 20 -126 l0
-101 80 0 80 0 0 -59 0 -60 -76 -43 -76 -43 4 -167 3 -168 -62 0 -63 0 0 258
c0 246 1 258 20 270 30 18 27 67 -6 89 -24 15 -29 15 -53 2 -35 -19 -42 -72
-12 -91 20 -12 21 -21 21 -290 l0 -278 100 0 99 0 -7 83 c-4 45 -7 125 -7 177
l0 94 80 46 c44 26 198 115 342 198 145 84 265 152 268 152 3 0 5 -51 5 -114
0 -89 -3 -116 -15 -126 -25 -21 -19 -69 10 -82 46 -21 86 40 50 76 -12 11 -15
41 -15 131 l0 117 43 -24 c23 -14 179 -103 346 -199 l304 -174 -5 -177 -5
-178 98 0 99 0 0 275 c0 262 1 276 20 295 26 26 25 55 -1 81 -26 26 -57 21
-82 -13 l-21 -28 22 -30 c21 -28 22 -37 22 -285 l0 -255 -60 0 -60 0 3 167 2
167 -72 45 -73 44 0 58 0 59 80 0 80 0 0 110 c0 68 4 110 10 110 6 0 15 11 22
25 16 35 -12 75 -52 75 -55 0 -78 -52 -40 -90 17 -17 20 -33 20 -105 l0 -85
-60 0 -60 0 0 166 c0 151 2 168 20 191 25 32 25 55 2 76 -46 42 -118 -4 -94
-58 7 -14 16 -25 22 -25 6 0 10 -83 10 -240 0 -132 -3 -240 -7 -240 -5 0 -37
17 -73 38 l-65 38 -3 133 c-2 124 -1 135 18 153 25 24 26 52 0 78 -22 22 -42
25 -71 10 -27 -15 -26 -75 1 -92 14 -9 20 -24 20 -50 l0 -38 -65 0 -65 0 0
143 c0 131 2 146 20 162 31 28 26 71 -11 90 -28 15 -33 15 -55 0 -30 -19 -32
-65 -4 -90 18 -17 20 -31 20 -177 l0 -158 80 0 80 0 0 -70 c0 -70 0 -71 -22
-59 -13 7 -96 55 -186 106 -90 52 -170 92 -177 89 -7 -2 -89 -48 -180 -100
-92 -53 -171 -96 -176 -96 -5 0 -9 29 -9 65 l0 65 80 0 80 0 0 163 c0 151 1
163 20 175 26 16 25 56 -2 82 -24 22 -35 24 -60 9z"/>

<path d="M1600 2000 c-159 -40 -268 -135 -315 -276 -31 -91 -24 -203 19 -318
43 -115 39 -181 -15 -243 -12 -13 -5 -23 51 -79 l65 -64 35 17 c44 21 64 21
93 1 26 -18 30 -74 8 -116 l-14 -27 56 -17 c71 -21 228 -24 297 -5 60 17 72
26 57 43 -5 7 -13 30 -17 50 -6 31 -3 41 19 62 30 31 60 33 102 7 l31 -19 66
66 66 67 -24 28 c-13 15 -29 46 -36 69 -10 38 -8 51 16 118 15 41 34 107 43
145 50 227 -97 442 -338 495 -61 13 -204 11 -265 -4z m-32 -643 c112 -7 115
-11 68 -84 -27 -44 -79 -79 -116 -79 -52 0 -99 58 -112 136 -5 33 -5 34 28 34
19 0 78 -3 132 -7z m497 -28 c0 -63 -55 -135 -102 -135 -58 0 -148 83 -148
136 0 25 6 26 193 32 l57 2 0 -35z m-305 -121 c21 -8 51 -69 60 -121 l7 -43
-86 0 -86 0 0 28 c1 36 24 99 46 123 18 20 32 23 59 13z"/>

<path d="M1090 1165 l0 -95 -80 0 -80 0 0 -105 c0 -92 -3 -108 -20 -125 -27
-27 -25 -46 5 -76 19 -18 31 -23 48 -19 47 15 61 61 27 95 -17 17 -20 33 -20
105 l0 85 60 0 60 0 0 -165 c0 -153 -2 -168 -21 -194 -26 -35 -22 -58 13 -84
25 -19 28 -19 52 -3 20 12 26 25 26 52 0 22 -6 37 -15 40 -13 5 -15 42 -15
246 l0 239 60 -89 c32 -49 66 -95 75 -102 13 -11 15 -51 15 -275 0 -249 -1
-263 -20 -280 -25 -23 -26 -57 -2 -78 22 -20 63 -22 80 -5 17 17 15 77 -3 84
-12 5 -15 27 -15 115 l0 109 80 0 80 0 0 -40 c0 -27 -7 -47 -20 -60 -25 -25
-26 -62 -2 -83 24 -22 55 -21 75 1 23 25 21 58 -3 82 -16 16 -20 33 -20 80 l0
60 -95 0 -95 0 0 111 0 111 58 -49 c87 -75 117 -96 246 -171 l119 -69 96 54
c92 52 206 130 291 201 l40 34 0 -111 0 -111 -100 0 -100 0 0 -64 c0 -36 -5
-68 -11 -71 -29 -19 -27 -76 5 -97 20 -13 53 -8 69 10 23 25 21 55 -3 77 -14
13 -20 31 -20 62 l0 43 80 0 80 0 0 -100 c0 -89 -3 -104 -22 -131 -21 -28 -21
-32 -7 -57 18 -33 62 -41 90 -16 24 22 24 45 -1 77 -19 24 -20 40 -20 281 l0
256 39 51 c21 28 55 79 75 112 l36 62 0 -243 c0 -229 -1 -243 -20 -262 -26
-26 -25 -46 5 -75 29 -30 36 -30 65 -7 27 22 30 70 6 87 -14 10 -16 37 -16
184 l0 171 60 0 60 0 0 -88 c0 -77 -2 -89 -21 -100 -30 -19 -23 -72 12 -91 24
-13 29 -13 53 2 32 21 35 66 6 92 -18 16 -20 31 -20 122 l0 103 -75 0 -75 0 0
95 c0 87 -2 95 -19 95 -14 0 -30 -20 -56 -72 -72 -140 -204 -293 -330 -382
-63 -44 -217 -136 -228 -136 -4 0 -7 51 -7 114 0 89 3 116 15 126 32 26 12 80
-30 80 -42 0 -62 -54 -30 -80 12 -10 15 -37 15 -126 0 -63 -3 -114 -7 -114
-14 0 -164 89 -227 134 -139 99 -244 219 -328 376 -28 53 -49 80 -60 80 -16 0
-18 -11 -18 -95z"/>
</g>
</svg>
